<svg width="170" height="135" viewBox="0 0 170 135" fill="none" xmlns="http://www.w3.org/2000/svg">
<path fill-rule="evenodd" clip-rule="evenodd" d="M105.243 0H4.11225e-06L0 108.459C-9.90116e-08 110.724 1.83624 112.56 4.10137 112.56L30.3332 112.56L37.1727 128.273C38.9506 132.358 42.9824 135 47.4385 135H53.5255C57.8394 135 61.7696 132.522 63.6284 128.63L71.3042 112.56H116.688L124.084 128.568C125.895 132.489 129.821 135 134.142 135C139.283 135 143.977 132.077 146.243 127.463L153.564 112.56H170V101.478V49.7248C170 35.342 158.337 23.6824 143.951 23.6824L105.243 23.6824V0ZM105.243 32.5479L105.243 101.478L119.596 101.478C122.273 101.478 124.671 103.137 125.613 105.643L134.142 123.547L142.704 105.564C143.668 103.1 146.045 101.478 148.692 101.478H161.132V49.7248C161.132 40.2383 153.44 32.5479 143.951 32.5479L105.243 32.5479ZM95.2669 14.4065L95.2669 101.478L66.8888 101.478C64.425 101.478 62.1778 102.885 61.1033 105.102L53.1338 121.542C52.5273 122.794 51.2587 123.588 49.8679 123.588C48.4984 123.588 47.2578 122.78 46.7046 121.528L39.5397 105.309C38.5111 102.98 36.2048 101.478 33.6585 101.478H11.0848L11.0848 14.4065H95.2669Z" fill="white"/>
</svg>
